# MagicaVoxel @ Ephtracy

# group
o 

# material
mtllib five.mtl
usemtl palette

# normals
vn -1 0 0
vn 1 0 0
vn 0 0 1
vn 0 0 -1
vn 0 -1 0
vn 0 1 0

# texcoords
vt 0.373047 0.5
vt 0.537109 0.5

# verts
v -1.3 0 1.7
v -1.3 0 1.1
v -1.3 0 -0.2
v -1.3 0 -1.3
v -1.3 0.1 1.7
v -1.3 0.1 1.1
v -1.3 0.1 -0.2
v -1.3 0.1 -1.3
v -1.2 0 1.1
v -1.2 0 1
v -1.2 0 0.0999999
v -1.2 0 -0.2
v -1.2 0 -1.3
v -1.2 0 -1.6
v -1.2 0.1 1.6
v -1.2 0.1 1.2
v -1.2 0.1 1.1
v -1.2 0.1 1
v -1.2 0.1 0.0999999
v -1.2 0.1 -0.2
v -1.2 0.1 -0.3
v -1.2 0.1 -1.2
v -1.2 0.1 -1.3
v -1.2 0.1 -1.6
v -1.2 0.2 1.6
v -1.2 0.2 1.2
v -1.2 0.2 -0.3
v -1.2 0.2 -1.2
v -1.1 0 1.8
v -1.1 0 1.7
v -1.1 0.1 1.8
v -1.1 0.1 1.7
v -1.1 0.1 1.2
v -1.1 0.1 1.1
v -1.1 0.1 0
v -1.1 0.1 -0.3
v -1.1 0.1 -1.2
v -1.1 0.1 -1.5
v -1.1 0.2 1.2
v -1.1 0.2 1.1
v -1.1 0.2 0
v -1.1 0.2 -0.3
v -1.1 0.2 -1.2
v -1.1 0.2 -1.5
v -1 0 0.2
v -1 0 0.0999999
v -1 0.1 1.7
v -1 0.1 1.6
v -1 0.1 0.2
v -1 0.1 0.0999999
v -1 0.2 1.7
v -1 0.2 1.6
v -0.9 0 -1.6
v -0.9 0 -1.7
v -0.9 0.1 0.0999999
v -0.9 0.1 0
v -0.9 0.1 -1.6
v -0.9 0.1 -1.7
v -0.9 0.2 0.0999999
v -0.9 0.2 0
v -0.8 0.1 -1.5
v -0.8 0.1 -1.6
v -0.8 0.2 -1.5
v -0.8 0.2 -1.6
v -0.2 0 0.3
v -0.2 0 0.2
v -0.2 0.1 0.3
v -0.2 0.1 0.2
v -0.0999999 0.1 0.2
v -0.0999999 0.1 0.0999999
v -0.0999999 0.2 0.2
v -0.0999999 0.2 0.0999999
v 0.2 0 0.4
v 0.2 0 0.3
v 0.2 0.1 0.4
v 0.2 0.1 0.3
v 0.3 0.1 0.3
v 0.3 0.1 0.2
v 0.3 0.2 0.3
v 0.3 0.2 0.2
v 0.4 0 1.2
v 0.4 0 1
v 0.4 0 0.5
v 0.4 0 0.4
v 0.4 0.1 1.2
v 0.4 0.1 1
v 0.4 0.1 0.5
v 0.4 0.1 0.4
v 0.5 0 1
v 0.5 0 0.5
v 0.5 0.1 1.3
v 0.5 0.1 1.1
v 0.5 0.1 1
v 0.5 0.1 0.5
v 0.5 0.1 0.4
v 0.5 0.1 0.3
v 0.5 0.2 1.3
v 0.5 0.2 1.1
v 0.5 0.2 0.4
v 0.5 0.2 0.3
v 0.6 0.1 1.1
v 0.6 0.1 0.4
v 0.6 0.2 1.1
v 0.6 0.2 0.4
v -0.7 0.1 1.2
v -0.7 0.1 1.1
v -0.7 0.2 1.2
v -0.7 0.2 1.1
v -0.6 0 1.1
v -0.6 0 1
v -0.6 0.1 1.3
v -0.6 0.1 1.2
v -0.6 0.1 1.1
v -0.6 0.1 1
v -0.6 0.2 1.3
v -0.6 0.2 1.2
v -0.5 0 1.2
v -0.5 0 1.1
v -0.5 0.1 1.2
v -0.5 0.1 1.1
v -0.5 0.1 -0.3
v -0.5 0.1 -1.1
v -0.5 0.2 -0.3
v -0.5 0.2 -1.1
v -0.4 0 -0.4
v -0.4 0 -0.9
v -0.4 0.1 -0.2
v -0.4 0.1 -0.3
v -0.4 0.1 -0.4
v -0.4 0.1 -0.9
v -0.4 0.2 -0.2
v -0.4 0.2 -0.3
v -0.3 0 -0.3
v -0.3 0 -0.4
v -0.3 0 -0.9
v -0.3 0 -1
v -0.3 0.1 -0.3
v -0.3 0.1 -0.4
v -0.3 0.1 -0.9
v -0.3 0.1 -1
v 0.8 0.1 1.7
v 0.8 0.1 1.6
v 0.8 0.1 -0.1
v 0.8 0.1 -0.2
v 0.8 0.2 1.7
v 0.8 0.2 1.6
v 0.8 0.2 -0.1
v 0.8 0.2 -0.2
v 0.9 0 1.8
v 0.9 0 1.7
v 0.9 0 -0.2
v 0.9 0 -0.3
v 0.9 0.1 1.8
v 0.9 0.1 1.7
v 0.9 0.1 1.6
v 0.9 0.1 1.5
v 0.9 0.1 -0.2
v 0.9 0.1 -0.3
v 0.9 0.2 1.6
v 0.9 0.2 1.5
v 1 0 1.7
v 1 0 1.6
v 1 0.1 1.7
v 1 0.1 1.6
v 1 0.1 1.5
v 1 0.1 1.3
v 1 0.1 0.0999999
v 1 0.1 -0.1
v 1 0.1 -1.5
v 1 0.1 -1.6
v 1 0.2 1.5
v 1 0.2 1.3
v 1 0.2 0.0999999
v 1 0.2 -0.1
v 1 0.2 -1.5
v 1 0.2 -1.6
v 1.1 0 1.6
v 1.1 0 1.4
v 1.1 0 0
v 1.1 0 -0.2
v 1.1 0 -1.6
v 1.1 0 -1.7
v 1.1 0.1 1.6
v 1.1 0.1 1.4
v 1.1 0.1 1.3
v 1.1 0.1 0.0999999
v 1.1 0.1 0
v 1.1 0.1 -0.2
v 1.1 0.1 -1.1
v 1.1 0.1 -1.5
v 1.1 0.1 -1.6
v 1.1 0.1 -1.7
v 1.1 0.2 1.3
v 1.1 0.2 0.0999999
v 1.1 0.2 -1.1
v 1.1 0.2 -1.5
v 1.2 0 1.4
v 1.2 0 0
v 1.2 0 -1
v 1.2 0 -1.6
v 1.2 0.1 1.4
v 1.2 0.1 0
v 1.2 0.1 -1
v 1.2 0.1 -1.6
v -1.1 0 1.8
v -1.1 0.1 1.8
v 0.9 0 1.8
v 0.9 0.1 1.8
v -1.3 0 1.7
v -1.3 0.1 1.7
v -1.1 0 1.7
v -1.1 0.1 1.7
v -1 0.1 1.7
v -1 0.2 1.7
v 0.8 0.1 1.7
v 0.8 0.2 1.7
v 0.9 0 1.7
v 0.9 0.1 1.7
v 1 0 1.7
v 1 0.1 1.7
v -1.2 0.1 1.6
v -1.2 0.2 1.6
v -1 0.1 1.6
v -1 0.2 1.6
v 0.8 0.1 1.6
v 0.8 0.2 1.6
v 0.9 0.1 1.6
v 0.9 0.2 1.6
v 1 0 1.6
v 1 0.1 1.6
v 1.1 0 1.6
v 1.1 0.1 1.6
v 0.9 0.1 1.5
v 0.9 0.2 1.5
v 1 0.1 1.5
v 1 0.2 1.5
v 1.1 0 1.4
v 1.1 0.1 1.4
v 1.2 0 1.4
v 1.2 0.1 1.4
v 1 0.1 1.3
v 1 0.2 1.3
v 1.1 0.1 1.3
v 1.1 0.2 1.3
v 0.4 0 0.5
v 0.4 0.1 0.5
v 0.5 0 0.5
v 0.5 0.1 0.5
v 0.2 0 0.4
v 0.2 0.1 0.4
v 0.4 0 0.4
v 0.4 0.1 0.4
v 0.5 0.1 0.4
v 0.5 0.2 0.4
v 0.6 0.1 0.4
v 0.6 0.2 0.4
v -0.2 0 0.3
v -0.2 0.1 0.3
v 0.2 0 0.3
v 0.2 0.1 0.3
v 0.3 0.1 0.3
v 0.3 0.2 0.3
v 0.5 0.1 0.3
v 0.5 0.2 0.3
v -1 0 0.2
v -1 0.1 0.2
v -0.2 0 0.2
v -0.2 0.1 0.2
v -0.0999999 0.1 0.2
v -0.0999999 0.2 0.2
v 0.3 0.1 0.2
v 0.3 0.2 0.2
v -1.2 0 0.0999999
v -1.2 0.1 0.0999999
v -1 0 0.0999999
v -1 0.1 0.0999999
v -0.9 0.1 0.0999999
v -0.9 0.2 0.0999999
v -0.0999999 0.1 0.0999999
v -0.0999999 0.2 0.0999999
v -1.1 0.1 0
v -1.1 0.2 0
v -0.9 0.1 0
v -0.9 0.2 0
v -1.3 0 -0.2
v -1.3 0.1 -0.2
v -1.2 0 -0.2
v -1.2 0.1 -0.2
v -1.2 0.1 -0.3
v -1.2 0.2 -0.3
v -1.1 0.1 -0.3
v -1.1 0.2 -0.3
v -0.4 0 -0.9
v -0.4 0.1 -0.9
v -0.3 0 -0.9
v -0.3 0.1 -0.9
v -0.3 0 -1
v -0.3 0.1 -1
v 1.2 0 -1
v 1.2 0.1 -1
v -0.5 0.1 -1.1
v -0.5 0.2 -1.1
v 1.1 0.1 -1.1
v 1.1 0.2 -1.1
v -0.6 0.1 1.3
v -0.6 0.2 1.3
v 0.5 0.1 1.3
v 0.5 0.2 1.3
v -1.2 0.1 1.2
v -1.2 0.2 1.2
v -1.1 0.1 1.2
v -1.1 0.2 1.2
v -0.7 0.1 1.2
v -0.7 0.2 1.2
v -0.6 0.1 1.2
v -0.6 0.2 1.2
v -0.5 0 1.2
v -0.5 0.1 1.2
v 0.4 0 1.2
v 0.4 0.1 1.2
v -1.3 0 1.1
v -1.3 0.1 1.1
v -1.2 0 1.1
v -1.2 0.1 1.1
v -1.1 0.1 1.1
v -1.1 0.2 1.1
v -0.7 0.1 1.1
v -0.7 0.2 1.1
v -0.6 0 1.1
v -0.6 0.1 1.1
v -0.5 0 1.1
v -0.5 0.1 1.1
v 0.5 0.1 1.1
v 0.5 0.2 1.1
v 0.6 0.1 1.1
v 0.6 0.2 1.1
v -1.2 0 1
v -1.2 0.1 1
v -0.6 0 1
v -0.6 0.1 1
v 0.4 0 1
v 0.4 0.1 1
v 0.5 0 1
v 0.5 0.1 1
v 1 0.1 0.0999999
v 1 0.2 0.0999999
v 1.1 0.1 0.0999999
v 1.1 0.2 0.0999999
v 1.1 0 0
v 1.1 0.1 0
v 1.2 0 0
v 1.2 0.1 0
v 0.8 0.1 -0.1
v 0.8 0.2 -0.1
v 1 0.1 -0.1
v 1 0.2 -0.1
v -0.4 0.1 -0.2
v -0.4 0.2 -0.2
v 0.8 0.1 -0.2
v 0.8 0.2 -0.2
v 0.9 0 -0.2
v 0.9 0.1 -0.2
v 1.1 0 -0.2
v 1.1 0.1 -0.2
v -0.5 0.1 -0.3
v -0.5 0.2 -0.3
v -0.4 0.1 -0.3
v -0.4 0.2 -0.3
v -0.3 0 -0.3
v -0.3 0.1 -0.3
v 0.9 0 -0.3
v 0.9 0.1 -0.3
v -0.4 0 -0.4
v -0.4 0.1 -0.4
v -0.3 0 -0.4
v -0.3 0.1 -0.4
v -1.2 0.1 -1.2
v -1.2 0.2 -1.2
v -1.1 0.1 -1.2
v -1.1 0.2 -1.2
v -1.3 0 -1.3
v -1.3 0.1 -1.3
v -1.2 0 -1.3
v -1.2 0.1 -1.3
v -1.1 0.1 -1.5
v -1.1 0.2 -1.5
v -0.8 0.1 -1.5
v -0.8 0.2 -1.5
v 1 0.1 -1.5
v 1 0.2 -1.5
v 1.1 0.1 -1.5
v 1.1 0.2 -1.5
v -1.2 0 -1.6
v -1.2 0.1 -1.6
v -0.9 0 -1.6
v -0.9 0.1 -1.6
v -0.8 0.1 -1.6
v -0.8 0.2 -1.6
v 1 0.1 -1.6
v 1 0.2 -1.6
v 1.1 0 -1.6
v 1.1 0.1 -1.6
v 1.2 0 -1.6
v 1.2 0.1 -1.6
v -0.9 0 -1.7
v -0.9 0.1 -1.7
v 1.1 0 -1.7
v 1.1 0.1 -1.7
v -1.1 0 1.8
v 0.9 0 1.8
v -1.3 0 1.7
v -1.1 0 1.7
v 0.9 0 1.7
v 1 0 1.7
v 1 0 1.6
v 1.1 0 1.6
v 1.1 0 1.4
v 1.2 0 1.4
v -0.5 0 1.2
v 0.4 0 1.2
v -1.3 0 1.1
v -1.2 0 1.1
v -0.6 0 1.1
v -0.5 0 1.1
v -1.2 0 1
v -0.6 0 1
v 0.4 0 1
v 0.5 0 1
v 0.4 0 0.5
v 0.5 0 0.5
v 0.2 0 0.4
v 0.4 0 0.4
v -0.2 0 0.3
v 0.2 0 0.3
v -1 0 0.2
v -0.2 0 0.2
v -1.2 0 0.0999999
v -1 0 0.0999999
v 1.1 0 0
v 1.2 0 0
v -1.3 0 -0.2
v -1.2 0 -0.2
v 0.9 0 -0.2
v 1.1 0 -0.2
v -0.3 0 -0.3
v 0.9 0 -0.3
v -0.4 0 -0.4
v -0.3 0 -0.4
v -0.4 0 -0.9
v -0.3 0 -0.9
v -0.3 0 -1
v 1.2 0 -1
v -1.3 0 -1.3
v -1.2 0 -1.3
v -1.2 0 -1.6
v -0.9 0 -1.6
v 1.1 0 -1.6
v 1.2 0 -1.6
v -0.9 0 -1.7
v 1.1 0 -1.7
v -1.1 0.1 1.8
v 0.9 0.1 1.8
v -1.3 0.1 1.7
v -1.1 0.1 1.7
v -1 0.1 1.7
v 0.8 0.1 1.7
v 0.9 0.1 1.7
v 1 0.1 1.7
v -1.2 0.1 1.6
v -1 0.1 1.6
v 0.8 0.1 1.6
v 0.9 0.1 1.6
v 1 0.1 1.6
v 1.1 0.1 1.6
v 0.9 0.1 1.5
v 1 0.1 1.5
v 1.1 0.1 1.4
v 1.2 0.1 1.4
v -0.6 0.1 1.3
v 0.5 0.1 1.3
v 1 0.1 1.3
v 1.1 0.1 1.3
v -1.2 0.1 1.2
v -1.1 0.1 1.2
v -0.7 0.1 1.2
v -0.6 0.1 1.2
v -0.5 0.1 1.2
v 0.4 0.1 1.2
v -1.3 0.1 1.1
v -1.2 0.1 1.1
v -1.1 0.1 1.1
v -0.7 0.1 1.1
v -0.6 0.1 1.1
v -0.5 0.1 1.1
v 0.5 0.1 1.1
v 0.6 0.1 1.1
v -1.2 0.1 1
v -0.6 0.1 1
v 0.4 0.1 1
v 0.5 0.1 1
v 0.4 0.1 0.5
v 0.5 0.1 0.5
v 0.2 0.1 0.4
v 0.4 0.1 0.4
v 0.5 0.1 0.4
v 0.6 0.1 0.4
v -0.2 0.1 0.3
v 0.2 0.1 0.3
v 0.3 0.1 0.3
v 0.5 0.1 0.3
v -1 0.1 0.2
v -0.2 0.1 0.2
v -0.0999999 0.1 0.2
v 0.3 0.1 0.2
v -1.2 0.1 0.0999999
v -1 0.1 0.0999999
v -0.9 0.1 0.0999999
v -0.0999999 0.1 0.0999999
v 1 0.1 0.0999999
v 1.1 0.1 0.0999999
v -1.1 0.1 0
v -0.9 0.1 0
v 1.1 0.1 0
v 1.2 0.1 0
v 0.8 0.1 -0.1
v 1 0.1 -0.1
v -1.3 0.1 -0.2
v -1.2 0.1 -0.2
v -0.4 0.1 -0.2
v 0.8 0.1 -0.2
v 0.9 0.1 -0.2
v 1.1 0.1 -0.2
v -1.2 0.1 -0.3
v -1.1 0.1 -0.3
v -0.5 0.1 -0.3
v -0.4 0.1 -0.3
v -0.3 0.1 -0.3
v 0.9 0.1 -0.3
v -0.4 0.1 -0.4
v -0.3 0.1 -0.4
v -0.4 0.1 -0.9
v -0.3 0.1 -0.9
v -0.3 0.1 -1
v 1.2 0.1 -1
v -0.5 0.1 -1.1
v 1.1 0.1 -1.1
v -1.2 0.1 -1.2
v -1.1 0.1 -1.2
v -1.3 0.1 -1.3
v -1.2 0.1 -1.3
v -1.1 0.1 -1.5
v -0.8 0.1 -1.5
v 1 0.1 -1.5
v 1.1 0.1 -1.5
v -1.2 0.1 -1.6
v -0.9 0.1 -1.6
v -0.8 0.1 -1.6
v 1 0.1 -1.6
v 1.1 0.1 -1.6
v 1.2 0.1 -1.6
v -0.9 0.1 -1.7
v 1.1 0.1 -1.7
v -1 0.2 1.7
v 0.8 0.2 1.7
v -1.2 0.2 1.6
v -1 0.2 1.6
v 0.8 0.2 1.6
v 0.9 0.2 1.6
v 0.9 0.2 1.5
v 1 0.2 1.5
v -0.6 0.2 1.3
v 0.5 0.2 1.3
v 1 0.2 1.3
v 1.1 0.2 1.3
v -1.2 0.2 1.2
v -1.1 0.2 1.2
v -0.7 0.2 1.2
v -0.6 0.2 1.2
v -1.1 0.2 1.1
v -0.7 0.2 1.1
v 0.5 0.2 1.1
v 0.6 0.2 1.1
v 0.5 0.2 0.4
v 0.6 0.2 0.4
v 0.3 0.2 0.3
v 0.5 0.2 0.3
v -0.0999999 0.2 0.2
v 0.3 0.2 0.2
v -0.9 0.2 0.0999999
v -0.0999999 0.2 0.0999999
v 1 0.2 0.0999999
v 1.1 0.2 0.0999999
v -1.1 0.2 0
v -0.9 0.2 0
v 0.8 0.2 -0.1
v 1 0.2 -0.1
v -0.4 0.2 -0.2
v 0.8 0.2 -0.2
v -1.2 0.2 -0.3
v -1.1 0.2 -0.3
v -0.5 0.2 -0.3
v -0.4 0.2 -0.3
v -0.5 0.2 -1.1
v 1.1 0.2 -1.1
v -1.2 0.2 -1.2
v -1.1 0.2 -1.2
v -1.1 0.2 -1.5
v -0.8 0.2 -1.5
v 1 0.2 -1.5
v 1.1 0.2 -1.5
v -0.8 0.2 -1.6
v 1 0.2 -1.6

# faces
f 5/2/1 2/2/1 1/2/1
f 6/2/1 2/2/1 5/2/1
f 7/2/1 4/2/1 3/2/1
f 8/2/1 4/2/1 7/2/1
f 17/2/1 10/2/1 9/2/1
f 18/2/1 10/2/1 17/2/1
f 19/2/1 12/2/1 11/2/1
f 20/2/1 12/2/1 19/2/1
f 23/2/1 14/2/1 13/2/1
f 24/2/1 14/2/1 23/2/1
f 25/1/1 16/1/1 15/1/1
f 26/1/1 16/1/1 25/1/1
f 27/1/1 22/1/1 21/1/1
f 28/1/1 22/1/1 27/1/1
f 31/2/1 30/2/1 29/2/1
f 32/2/1 30/2/1 31/2/1
f 39/1/1 34/1/1 33/1/1
f 40/1/1 34/1/1 39/1/1
f 41/1/1 36/1/1 35/1/1
f 42/1/1 36/1/1 41/1/1
f 43/1/1 38/1/1 37/1/1
f 44/1/1 38/1/1 43/1/1
f 49/2/1 46/2/1 45/2/1
f 50/2/1 46/2/1 49/2/1
f 51/1/1 48/1/1 47/1/1
f 52/1/1 48/1/1 51/1/1
f 57/2/1 54/2/1 53/2/1
f 58/2/1 54/2/1 57/2/1
f 59/1/1 56/1/1 55/1/1
f 60/1/1 56/1/1 59/1/1
f 63/1/1 62/1/1 61/1/1
f 64/1/1 62/1/1 63/1/1
f 67/2/1 66/2/1 65/2/1
f 68/2/1 66/2/1 67/2/1
f 71/1/1 70/1/1 69/1/1
f 72/1/1 70/1/1 71/1/1
f 75/2/1 74/2/1 73/2/1
f 76/2/1 74/2/1 75/2/1
f 79/1/1 78/1/1 77/1/1
f 80/1/1 78/1/1 79/1/1
f 85/2/1 82/2/1 81/2/1
f 86/2/1 82/2/1 85/2/1
f 87/2/1 84/2/1 83/2/1
f 88/2/1 84/2/1 87/2/1
f 93/2/1 90/2/1 89/2/1
f 94/2/1 90/2/1 93/2/1
f 97/1/1 92/1/1 91/1/1
f 98/1/1 92/1/1 97/1/1
f 99/1/1 96/1/1 95/1/1
f 100/1/1 96/1/1 99/1/1
f 103/1/1 102/1/1 101/1/1
f 104/1/1 102/1/1 103/1/1
f 105/1/2 106/1/2 107/1/2
f 107/1/2 106/1/2 108/1/2
f 109/2/2 110/2/2 113/2/2
f 113/2/2 110/2/2 114/2/2
f 111/1/2 112/1/2 115/1/2
f 115/1/2 112/1/2 116/1/2
f 117/2/2 118/2/2 119/2/2
f 119/2/2 118/2/2 120/2/2
f 121/1/2 122/1/2 123/1/2
f 123/1/2 122/1/2 124/1/2
f 125/2/2 126/2/2 129/2/2
f 129/2/2 126/2/2 130/2/2
f 127/1/2 128/1/2 131/1/2
f 131/1/2 128/1/2 132/1/2
f 133/2/2 134/2/2 137/2/2
f 137/2/2 134/2/2 138/2/2
f 135/2/2 136/2/2 139/2/2
f 139/2/2 136/2/2 140/2/2
f 141/1/2 142/1/2 145/1/2
f 145/1/2 142/1/2 146/1/2
f 143/1/2 144/1/2 147/1/2
f 147/1/2 144/1/2 148/1/2
f 149/2/2 150/2/2 153/2/2
f 153/2/2 150/2/2 154/2/2
f 151/2/2 152/2/2 157/2/2
f 157/2/2 152/2/2 158/2/2
f 155/1/2 156/1/2 159/1/2
f 159/1/2 156/1/2 160/1/2
f 161/2/2 162/2/2 163/2/2
f 163/2/2 162/2/2 164/2/2
f 165/1/2 166/1/2 171/1/2
f 171/1/2 166/1/2 172/1/2
f 167/1/2 168/1/2 173/1/2
f 173/1/2 168/1/2 174/1/2
f 169/1/2 170/1/2 175/1/2
f 175/1/2 170/1/2 176/1/2
f 177/2/2 178/2/2 183/2/2
f 183/2/2 178/2/2 184/2/2
f 179/2/2 180/2/2 187/2/2
f 187/2/2 180/2/2 188/2/2
f 181/2/2 182/2/2 191/2/2
f 191/2/2 182/2/2 192/2/2
f 185/1/2 186/1/2 193/1/2
f 193/1/2 186/1/2 194/1/2
f 189/1/2 190/1/2 195/1/2
f 195/1/2 190/1/2 196/1/2
f 197/2/2 198/2/2 201/2/2
f 201/2/2 198/2/2 202/2/2
f 199/2/2 200/2/2 203/2/2
f 203/2/2 200/2/2 204/2/2
f 207/2/3 206/2/3 205/2/3
f 208/2/3 206/2/3 207/2/3
f 211/2/3 210/2/3 209/2/3
f 212/2/3 210/2/3 211/2/3
f 215/1/3 214/1/3 213/1/3
f 216/1/3 214/1/3 215/1/3
f 219/2/3 218/2/3 217/2/3
f 220/2/3 218/2/3 219/2/3
f 223/1/3 222/1/3 221/1/3
f 224/1/3 222/1/3 223/1/3
f 227/1/3 226/1/3 225/1/3
f 228/1/3 226/1/3 227/1/3
f 231/2/3 230/2/3 229/2/3
f 232/2/3 230/2/3 231/2/3
f 235/1/3 234/1/3 233/1/3
f 236/1/3 234/1/3 235/1/3
f 239/2/3 238/2/3 237/2/3
f 240/2/3 238/2/3 239/2/3
f 243/1/3 242/1/3 241/1/3
f 244/1/3 242/1/3 243/1/3
f 247/2/3 246/2/3 245/2/3
f 248/2/3 246/2/3 247/2/3
f 251/2/3 250/2/3 249/2/3
f 252/2/3 250/2/3 251/2/3
f 255/1/3 254/1/3 253/1/3
f 256/1/3 254/1/3 255/1/3
f 259/2/3 258/2/3 257/2/3
f 260/2/3 258/2/3 259/2/3
f 263/1/3 262/1/3 261/1/3
f 264/1/3 262/1/3 263/1/3
f 267/2/3 266/2/3 265/2/3
f 268/2/3 266/2/3 267/2/3
f 271/1/3 270/1/3 269/1/3
f 272/1/3 270/1/3 271/1/3
f 275/2/3 274/2/3 273/2/3
f 276/2/3 274/2/3 275/2/3
f 279/1/3 278/1/3 277/1/3
f 280/1/3 278/1/3 279/1/3
f 283/1/3 282/1/3 281/1/3
f 284/1/3 282/1/3 283/1/3
f 287/2/3 286/2/3 285/2/3
f 288/2/3 286/2/3 287/2/3
f 291/1/3 290/1/3 289/1/3
f 292/1/3 290/1/3 291/1/3
f 295/2/3 294/2/3 293/2/3
f 296/2/3 294/2/3 295/2/3
f 299/2/3 298/2/3 297/2/3
f 300/2/3 298/2/3 299/2/3
f 303/1/3 302/1/3 301/1/3
f 304/1/3 302/1/3 303/1/3
f 305/1/4 306/1/4 307/1/4
f 307/1/4 306/1/4 308/1/4
f 309/1/4 310/1/4 311/1/4
f 311/1/4 310/1/4 312/1/4
f 313/1/4 314/1/4 315/1/4
f 315/1/4 314/1/4 316/1/4
f 317/2/4 318/2/4 319/2/4
f 319/2/4 318/2/4 320/2/4
f 321/2/4 322/2/4 323/2/4
f 323/2/4 322/2/4 324/2/4
f 325/1/4 326/1/4 327/1/4
f 327/1/4 326/1/4 328/1/4
f 329/2/4 330/2/4 331/2/4
f 331/2/4 330/2/4 332/2/4
f 333/1/4 334/1/4 335/1/4
f 335/1/4 334/1/4 336/1/4
f 337/2/4 338/2/4 339/2/4
f 339/2/4 338/2/4 340/2/4
f 341/2/4 342/2/4 343/2/4
f 343/2/4 342/2/4 344/2/4
f 345/1/4 346/1/4 347/1/4
f 347/1/4 346/1/4 348/1/4
f 349/2/4 350/2/4 351/2/4
f 351/2/4 350/2/4 352/2/4
f 353/1/4 354/1/4 355/1/4
f 355/1/4 354/1/4 356/1/4
f 357/1/4 358/1/4 359/1/4
f 359/1/4 358/1/4 360/1/4
f 361/2/4 362/2/4 363/2/4
f 363/2/4 362/2/4 364/2/4
f 365/1/4 366/1/4 367/1/4
f 367/1/4 366/1/4 368/1/4
f 369/2/4 370/2/4 371/2/4
f 371/2/4 370/2/4 372/2/4
f 373/2/4 374/2/4 375/2/4
f 375/2/4 374/2/4 376/2/4
f 377/1/4 378/1/4 379/1/4
f 379/1/4 378/1/4 380/1/4
f 381/2/4 382/2/4 383/2/4
f 383/2/4 382/2/4 384/2/4
f 385/1/4 386/1/4 387/1/4
f 387/1/4 386/1/4 388/1/4
f 389/1/4 390/1/4 391/1/4
f 391/1/4 390/1/4 392/1/4
f 393/2/4 394/2/4 395/2/4
f 395/2/4 394/2/4 396/2/4
f 397/1/4 398/1/4 399/1/4
f 399/1/4 398/1/4 400/1/4
f 401/2/4 402/2/4 403/2/4
f 403/2/4 402/2/4 404/2/4
f 405/2/4 406/2/4 407/2/4
f 407/2/4 406/2/4 408/2/4
f 412/2/5 410/2/5 409/2/5
f 413/2/5 410/2/5 412/2/5
f 415/2/5 412/2/5 411/2/5
f 415/2/5 414/2/5 413/2/5
f 415/2/5 413/2/5 412/2/5
f 417/2/5 416/2/5 415/2/5
f 419/2/5 415/2/5 411/2/5
f 419/2/5 418/2/5 417/2/5
f 419/2/5 417/2/5 415/2/5
f 420/2/5 418/2/5 419/2/5
f 421/2/5 419/2/5 411/2/5
f 422/2/5 419/2/5 421/2/5
f 423/2/5 419/2/5 422/2/5
f 424/2/5 419/2/5 423/2/5
f 425/2/5 423/2/5 422/2/5
f 426/2/5 423/2/5 425/2/5
f 427/2/5 418/2/5 420/2/5
f 428/2/5 418/2/5 427/2/5
f 430/2/5 418/2/5 428/2/5
f 432/2/5 430/2/5 429/2/5
f 434/2/5 432/2/5 431/2/5
f 436/2/5 434/2/5 433/2/5
f 438/2/5 436/2/5 435/2/5
f 439/2/5 418/2/5 430/2/5
f 439/2/5 438/2/5 437/2/5
f 439/2/5 436/2/5 438/2/5
f 439/2/5 430/2/5 432/2/5
f 439/2/5 434/2/5 436/2/5
f 439/2/5 432/2/5 434/2/5
f 440/2/5 418/2/5 439/2/5
f 442/2/5 439/2/5 437/2/5
f 443/2/5 439/2/5 442/2/5
f 444/2/5 439/2/5 443/2/5
f 445/2/5 442/2/5 441/2/5
f 445/2/5 443/2/5 442/2/5
f 446/2/5 443/2/5 445/2/5
f 447/2/5 445/2/5 441/2/5
f 448/2/5 445/2/5 447/2/5
f 449/2/5 447/2/5 441/2/5
f 451/2/5 450/2/5 449/2/5
f 453/2/5 451/2/5 449/2/5
f 453/2/5 452/2/5 451/2/5
f 453/2/5 449/2/5 441/2/5
f 454/2/5 452/2/5 453/2/5
f 455/2/5 452/2/5 454/2/5
f 456/2/5 452/2/5 455/2/5
f 457/2/5 452/2/5 456/2/5
f 458/2/5 452/2/5 457/2/5
f 459/2/5 457/2/5 456/2/5
f 460/2/5 457/2/5 459/2/5
f 461/2/6 462/2/6 464/2/6
f 464/2/6 462/2/6 465/2/6
f 465/2/6 462/2/6 466/2/6
f 466/2/6 462/2/6 467/2/6
f 463/2/6 464/2/6 469/2/6
f 464/2/6 465/2/6 469/2/6
f 469/2/6 465/2/6 470/2/6
f 467/2/6 468/2/6 471/2/6
f 466/2/6 467/2/6 471/2/6
f 471/2/6 468/2/6 472/2/6
f 472/2/6 468/2/6 473/2/6
f 473/2/6 474/2/6 475/2/6
f 472/2/6 473/2/6 475/2/6
f 475/2/6 474/2/6 476/2/6
f 476/2/6 474/2/6 477/2/6
f 476/2/6 477/2/6 481/2/6
f 477/2/6 478/2/6 481/2/6
f 481/2/6 478/2/6 482/2/6
f 463/2/6 469/2/6 483/2/6
f 479/2/6 480/2/6 486/2/6
f 486/2/6 480/2/6 487/2/6
f 487/2/6 480/2/6 488/2/6
f 483/2/6 484/2/6 489/2/6
f 463/2/6 483/2/6 489/2/6
f 489/2/6 484/2/6 490/2/6
f 490/2/6 484/2/6 491/2/6
f 486/2/6 487/2/6 492/2/6
f 485/2/6 486/2/6 492/2/6
f 492/2/6 487/2/6 493/2/6
f 493/2/6 487/2/6 494/2/6
f 488/2/6 480/2/6 495/2/6
f 490/2/6 491/2/6 497/2/6
f 492/2/6 493/2/6 497/2/6
f 491/2/6 492/2/6 497/2/6
f 497/2/6 493/2/6 498/2/6
f 495/2/6 496/2/6 499/2/6
f 488/2/6 495/2/6 499/2/6
f 499/2/6 496/2/6 500/2/6
f 500/2/6 496/2/6 502/2/6
f 501/2/6 502/2/6 504/2/6
f 502/2/6 496/2/6 505/2/6
f 504/2/6 502/2/6 505/2/6
f 505/2/6 496/2/6 506/2/6
f 503/2/6 504/2/6 508/2/6
f 504/2/6 505/2/6 508/2/6
f 508/2/6 505/2/6 509/2/6
f 509/2/6 505/2/6 510/2/6
f 507/2/6 508/2/6 512/2/6
f 508/2/6 509/2/6 512/2/6
f 512/2/6 509/2/6 513/2/6
f 513/2/6 509/2/6 514/2/6
f 511/2/6 512/2/6 516/2/6
f 512/2/6 513/2/6 516/2/6
f 516/2/6 513/2/6 517/2/6
f 517/2/6 513/2/6 518/2/6
f 482/2/6 478/2/6 520/2/6
f 516/2/6 517/2/6 521/2/6
f 515/2/6 516/2/6 521/2/6
f 521/2/6 517/2/6 522/2/6
f 519/2/6 520/2/6 523/2/6
f 520/2/6 478/2/6 523/2/6
f 523/2/6 478/2/6 524/2/6
f 519/2/6 523/2/6 526/2/6
f 515/2/6 521/2/6 528/2/6
f 525/2/6 526/2/6 530/2/6
f 530/2/6 526/2/6 531/2/6
f 526/2/6 523/2/6 532/2/6
f 531/2/6 526/2/6 532/2/6
f 527/2/6 528/2/6 533/2/6
f 528/2/6 521/2/6 533/2/6
f 533/2/6 521/2/6 534/2/6
f 530/2/6 531/2/6 536/2/6
f 529/2/6 530/2/6 536/2/6
f 536/2/6 531/2/6 537/2/6
f 537/2/6 531/2/6 538/2/6
f 535/2/6 536/2/6 539/2/6
f 536/2/6 537/2/6 539/2/6
f 539/2/6 537/2/6 540/2/6
f 535/2/6 539/2/6 541/2/6
f 541/2/6 542/2/6 543/2/6
f 541/2/6 543/2/6 545/2/6
f 543/2/6 544/2/6 545/2/6
f 535/2/6 541/2/6 545/2/6
f 545/2/6 544/2/6 546/2/6
f 527/2/6 533/2/6 547/2/6
f 527/2/6 547/2/6 549/2/6
f 547/2/6 548/2/6 549/2/6
f 549/2/6 548/2/6 550/2/6
f 550/2/6 548/2/6 551/2/6
f 546/2/6 544/2/6 554/2/6
f 551/2/6 552/2/6 555/2/6
f 550/2/6 551/2/6 555/2/6
f 555/2/6 552/2/6 556/2/6
f 556/2/6 552/2/6 557/2/6
f 553/2/6 554/2/6 558/2/6
f 554/2/6 544/2/6 559/2/6
f 558/2/6 554/2/6 559/2/6
f 559/2/6 544/2/6 560/2/6
f 556/2/6 557/2/6 561/2/6
f 557/2/6 558/2/6 561/2/6
f 558/2/6 559/2/6 561/2/6
f 561/2/6 559/2/6 562/2/6
f 563/1/6 564/1/6 566/1/6
f 566/1/6 564/1/6 567/1/6
f 565/1/6 566/1/6 569/1/6
f 567/1/6 568/1/6 569/1/6
f 566/1/6 567/1/6 569/1/6
f 565/1/6 569/1/6 571/1/6
f 569/1/6 570/1/6 571/1/6
f 571/1/6 570/1/6 572/1/6
f 572/1/6 570/1/6 573/1/6
f 565/1/6 571/1/6 575/1/6
f 575/1/6 571/1/6 576/1/6
f 576/1/6 571/1/6 577/1/6
f 577/1/6 571/1/6 578/1/6
f 576/1/6 577/1/6 579/1/6
f 579/1/6 577/1/6 580/1/6
f 573/1/6 574/1/6 581/1/6
f 572/1/6 573/1/6 581/1/6
f 581/1/6 574/1/6 582/1/6
f 582/1/6 574/1/6 584/1/6
f 583/1/6 584/1/6 586/1/6
f 585/1/6 586/1/6 588/1/6
f 587/1/6 588/1/6 590/1/6
f 584/1/6 574/1/6 591/1/6
f 586/1/6 584/1/6 591/1/6
f 590/1/6 588/1/6 591/1/6
f 588/1/6 586/1/6 591/1/6
f 591/1/6 574/1/6 592/1/6
f 589/1/6 590/1/6 594/1/6
f 590/1/6 591/1/6 594/1/6
f 594/1/6 591/1/6 595/1/6
f 593/1/6 594/1/6 595/1/6
f 595/1/6 591/1/6 596/1/6
f 593/1/6 595/1/6 597/1/6
f 597/1/6 595/1/6 598/1/6
f 593/1/6 597/1/6 600/1/6
f 600/1/6 597/1/6 601/1/6
f 601/1/6 597/1/6 602/1/6
f 599/1/6 600/1/6 603/1/6
f 600/1/6 601/1/6 603/1/6
f 599/1/6 603/1/6 605/1/6
f 603/1/6 604/1/6 605/1/6
f 605/1/6 604/1/6 606/1/6
f 606/1/6 604/1/6 607/1/6
f 607/1/6 604/1/6 608/1/6
f 608/1/6 604/1/6 609/1/6
f 609/1/6 604/1/6 610/1/6
f 608/1/6 609/1/6 611/1/6
f 611/1/6 609/1/6 612/1/6
