# MagicaVoxel @ Ephtracy

# group
o 

# material
mtllib flag.mtl
usemtl palette

# normals
vn -1 0 0
vn 1 0 0
vn 0 0 1
vn 0 0 -1
vn 0 -1 0
vn 0 1 0

# texcoords
vt 0.861328 0.5
vt 0.865234 0.5
vt 0.974609 0.5
vt 0.982422 0.5
vt 0.994141 0.5

# verts
v -1.1 0 -1.5
v -1.1 0 -1.8
v -1.1 0.1 -1.5
v -1.1 0.1 -1.8
v -1 0 -1.4
v -1 0 -1.5
v -1 0 -1.8
v -1 0 -1.9
v -1 0.1 -1.4
v -1 0.1 -1.5
v -1 0.1 -1.6
v -1 0.1 -1.7
v -1 0.1 -1.8
v -1 0.1 -1.9
v -1 0.2 -1.6
v -1 0.2 -1.7
v -0.9 0 1.6
v -0.9 0 -1.3
v -0.9 0.1 1.6
v -0.9 0.1 -1.3
v -0.9 0.1 -1.5
v -0.9 0.1 -1.6
v -0.9 0.1 -1.7
v -0.9 0.1 -1.8
v -0.9 0.2 -1.5
v -0.9 0.2 -1.6
v -0.9 0.2 -1.7
v -0.9 0.2 -1.8
v -0.8 0 1.7
v -0.8 0 1.6
v -0.8 0 -1.3
v -0.8 0 -1.4
v -0.8 0.1 1.7
v -0.8 0.1 1.6
v -0.8 0.1 1.5
v -0.8 0.1 -1.2
v -0.8 0.1 -1.3
v -0.8 0.1 -1.4
v -0.8 0.2 1.5
v -0.8 0.2 -1.2
v -0.4 0.1 0.2
v -0.4 0.1 -1.2
v -0.4 0.2 0.2
v -0.4 0.2 -1.2
v -0.6 0 1.7
v -0.6 0 1.6
v -0.6 0 -1.3
v -0.6 0 -1.4
v -0.6 0.1 1.7
v -0.6 0.1 1.6
v -0.6 0.1 1.5
v -0.6 0.1 -1.2
v -0.6 0.1 -1.3
v -0.6 0.1 -1.4
v -0.6 0.2 1.5
v -0.6 0.2 -1.2
v -0.5 0 1.6
v -0.5 0 0.3
v -0.5 0.1 1.6
v -0.5 0.1 0.3
v -0.5 0.1 -1.5
v -0.5 0.1 -1.6
v -0.5 0.1 -1.7
v -0.5 0.1 -1.8
v -0.5 0.2 -1.5
v -0.5 0.2 -1.6
v -0.5 0.2 -1.7
v -0.5 0.2 -1.8
v -0.4 0 -1.4
v -0.4 0 -1.5
v -0.4 0 -1.8
v -0.4 0 -1.9
v -0.4 0.1 -1.4
v -0.4 0.1 -1.5
v -0.4 0.1 -1.6
v -0.4 0.1 -1.7
v -0.4 0.1 -1.8
v -0.4 0.1 -1.9
v -0.4 0.2 -1.6
v -0.4 0.2 -1.7
v -0.3 0 -1.5
v -0.3 0 -1.8
v -0.3 0.1 -1.5
v -0.3 0.1 -1.8
v -0.2 0.1 0.2
v -0.2 0.1 0.0999999
v -0.2 0.1 -1.1
v -0.2 0.1 -1.2
v -0.2 0.2 0.2
v -0.2 0.2 0.0999999
v -0.2 0.2 -1.1
v -0.2 0.2 -1.2
v 0 0 0.3
v 0 0 0.2
v 0 0 -1.2
v 0 0 -1.3
v 0 0.1 0.3
v 0 0.1 0.2
v 0 0.1 -1.2
v 0 0.1 -1.3
v 0.1 0.1 0.0999999
v 0.1 0.1 -1.19209e-07
v 0.1 0.1 -1
v 0.1 0.1 -1.1
v 0.1 0.2 0.0999999
v 0.1 0.2 -1.19209e-07
v 0.1 0.2 -1
v 0.1 0.2 -1.1
v 0.3 0 0.2
v 0.3 0 0.0999999
v 0.3 0 -1.1
v 0.3 0 -1.2
v 0.3 0.1 0.2
v 0.3 0.1 0.0999999
v 0.3 0.1 -1.1
v 0.3 0.1 -1.2
v 0.4 0.1 -1.19209e-07
v 0.4 0.1 -0.1
v 0.4 0.1 -0.9
v 0.4 0.1 -1
v 0.4 0.2 -1.19209e-07
v 0.4 0.2 -0.1
v 0.4 0.2 -0.9
v 0.4 0.2 -1
v 0.5 0 0.0999999
v 0.5 0 -1.19209e-07
v 0.5 0.1 0.0999999
v 0.5 0.1 -1.19209e-07
v 0.6 0 -1
v 0.6 0 -1.1
v 0.6 0.1 -1
v 0.6 0.1 -1.1
v 0.7 0.1 -0.1
v 0.7 0.1 -0.2
v 0.7 0.1 -0.8
v 0.7 0.1 -0.9
v 0.7 0.2 -0.1
v 0.7 0.2 -0.2
v 0.7 0.2 -0.8
v 0.7 0.2 -0.9
v 0.8 0 -1.19209e-07
v 0.8 0 -0.1
v 0.8 0 -0.9
v 0.8 0 -1
v 0.8 0.1 -1.19209e-07
v 0.8 0.1 -0.1
v 0.8 0.1 -0.9
v 0.8 0.1 -1
v 1 0.1 -0.2
v 1 0.1 -0.3
v 1 0.1 -0.7
v 1 0.1 -0.8
v 1 0.2 -0.2
v 1 0.2 -0.3
v 1 0.2 -0.7
v 1 0.2 -0.8
v 1.1 0 -0.1
v 1.1 0 -0.2
v 1.1 0 -0.8
v 1.1 0 -0.9
v 1.1 0.1 -0.1
v 1.1 0.1 -0.2
v 1.1 0.1 -0.8
v 1.1 0.1 -0.9
v 1.3 0.1 -0.3
v 1.3 0.1 -0.4
v 1.3 0.1 -0.6
v 1.3 0.1 -0.7
v 1.3 0.2 -0.3
v 1.3 0.2 -0.4
v 1.3 0.2 -0.6
v 1.3 0.2 -0.7
v 1.4 0 -0.2
v 1.4 0 -0.3
v 1.4 0 -0.7
v 1.4 0 -0.8
v 1.4 0.1 -0.2
v 1.4 0.1 -0.3
v 1.4 0.1 -0.7
v 1.4 0.1 -0.8
v 1.5 0.1 -0.4
v 1.5 0.1 -0.6
v 1.5 0.2 -0.4
v 1.5 0.2 -0.6
v 1.6 0 -0.3
v 1.6 0 -0.7
v 1.6 0.1 -0.3
v 1.6 0.1 -0.7
v -0.8 0 1.7
v -0.8 0.1 1.7
v -0.6 0 1.7
v -0.6 0.1 1.7
v -0.9 0 1.6
v -0.9 0.1 1.6
v -0.8 0 1.6
v -0.8 0.1 1.6
v -0.6 0 1.6
v -0.6 0.1 1.6
v -0.5 0 1.6
v -0.5 0.1 1.6
v -0.8 0.1 1.5
v -0.8 0.2 1.5
v -0.6 0.1 1.5
v -0.6 0.2 1.5
v -0.5 0 0.3
v -0.5 0.1 0.3
v 0 0 0.3
v 0 0.1 0.3
v -0.4 0.1 0.2
v -0.4 0.2 0.2
v -0.2 0.1 0.2
v -0.2 0.2 0.2
v 0 0 0.2
v 0 0.1 0.2
v 0.3 0 0.2
v 0.3 0.1 0.2
v -0.2 0.1 0.0999999
v -0.2 0.2 0.0999999
v 0.1 0.1 0.0999999
v 0.1 0.2 0.0999999
v 0.3 0 0.0999999
v 0.3 0.1 0.0999999
v 0.5 0 0.0999999
v 0.5 0.1 0.0999999
v 0.1 0.1 -1.19209e-07
v 0.1 0.2 -1.19209e-07
v 0.4 0.1 -1.19209e-07
v 0.4 0.2 -1.19209e-07
v 0.5 0 -1.19209e-07
v 0.5 0.1 -1.19209e-07
v 0.8 0 -1.19209e-07
v 0.8 0.1 -1.19209e-07
v 0.4 0.1 -0.1
v 0.4 0.2 -0.1
v 0.7 0.1 -0.1
v 0.7 0.2 -0.1
v 0.8 0 -0.1
v 0.8 0.1 -0.1
v 1.1 0 -0.1
v 1.1 0.1 -0.1
v 0.7 0.1 -0.2
v 0.7 0.2 -0.2
v 1 0.1 -0.2
v 1 0.2 -0.2
v 1.1 0 -0.2
v 1.1 0.1 -0.2
v 1.4 0 -0.2
v 1.4 0.1 -0.2
v 1 0.1 -0.3
v 1 0.2 -0.3
v 1.3 0.1 -0.3
v 1.3 0.2 -0.3
v 1.4 0 -0.3
v 1.4 0.1 -0.3
v 1.6 0 -0.3
v 1.6 0.1 -0.3
v 1.3 0.1 -0.4
v 1.3 0.2 -0.4
v 1.5 0.1 -0.4
v 1.5 0.2 -0.4
v -1 0 -1.4
v -1 0.1 -1.4
v -0.8 0 -1.4
v -0.8 0.1 -1.4
v -0.6 0 -1.4
v -0.6 0.1 -1.4
v -0.4 0 -1.4
v -0.4 0.1 -1.4
v -1.1 0 -1.5
v -1.1 0.1 -1.5
v -1 0 -1.5
v -1 0.1 -1.5
v -0.9 0.1 -1.5
v -0.9 0.2 -1.5
v -0.5 0.1 -1.5
v -0.5 0.2 -1.5
v -0.4 0 -1.5
v -0.4 0.1 -1.5
v -0.3 0 -1.5
v -0.3 0.1 -1.5
v -1 0.1 -1.6
v -1 0.2 -1.6
v -0.9 0.1 -1.6
v -0.9 0.2 -1.6
v -0.5 0.1 -1.6
v -0.5 0.2 -1.6
v -0.4 0.1 -1.6
v -0.4 0.2 -1.6
v 1.3 0.1 -0.6
v 1.3 0.2 -0.6
v 1.5 0.1 -0.6
v 1.5 0.2 -0.6
v 1 0.1 -0.7
v 1 0.2 -0.7
v 1.3 0.1 -0.7
v 1.3 0.2 -0.7
v 1.4 0 -0.7
v 1.4 0.1 -0.7
v 1.6 0 -0.7
v 1.6 0.1 -0.7
v 0.7 0.1 -0.8
v 0.7 0.2 -0.8
v 1 0.1 -0.8
v 1 0.2 -0.8
v 1.1 0 -0.8
v 1.1 0.1 -0.8
v 1.4 0 -0.8
v 1.4 0.1 -0.8
v 0.4 0.1 -0.9
v 0.4 0.2 -0.9
v 0.7 0.1 -0.9
v 0.7 0.2 -0.9
v 0.8 0 -0.9
v 0.8 0.1 -0.9
v 1.1 0 -0.9
v 1.1 0.1 -0.9
v 0.1 0.1 -1
v 0.1 0.2 -1
v 0.4 0.1 -1
v 0.4 0.2 -1
v 0.6 0 -1
v 0.6 0.1 -1
v 0.8 0 -1
v 0.8 0.1 -1
v -0.2 0.1 -1.1
v -0.2 0.2 -1.1
v 0.1 0.1 -1.1
v 0.1 0.2 -1.1
v 0.3 0 -1.1
v 0.3 0.1 -1.1
v 0.6 0 -1.1
v 0.6 0.1 -1.1
v -0.8 0.1 -1.2
v -0.8 0.2 -1.2
v -0.6 0.1 -1.2
v -0.6 0.2 -1.2
v -0.4 0.1 -1.2
v -0.4 0.2 -1.2
v -0.2 0.1 -1.2
v -0.2 0.2 -1.2
v 0 0 -1.2
v 0 0.1 -1.2
v 0.3 0 -1.2
v 0.3 0.1 -1.2
v -0.9 0 -1.3
v -0.9 0.1 -1.3
v -0.8 0 -1.3
v -0.8 0.1 -1.3
v -0.6 0 -1.3
v -0.6 0.1 -1.3
v -0.5 0 -1.3
v -0.5 0.1 -1.3
v 0 0 -1.3
v 0 0.1 -1.3
v -1 0.1 -1.7
v -1 0.2 -1.7
v -0.9 0.1 -1.7
v -0.9 0.2 -1.7
v -0.5 0.1 -1.7
v -0.5 0.2 -1.7
v -0.4 0.1 -1.7
v -0.4 0.2 -1.7
v -1.1 0 -1.8
v -1.1 0.1 -1.8
v -1 0 -1.8
v -1 0.1 -1.8
v -0.9 0.1 -1.8
v -0.9 0.2 -1.8
v -0.5 0.1 -1.8
v -0.5 0.2 -1.8
v -0.4 0 -1.8
v -0.4 0.1 -1.8
v -0.3 0 -1.8
v -0.3 0.1 -1.8
v -1 0 -1.9
v -1 0.1 -1.9
v -0.4 0 -1.9
v -0.4 0.1 -1.9
v -0.8 0 1.7
v -0.6 0 1.7
v -0.9 0 1.6
v -0.8 0 1.6
v -0.6 0 1.6
v -0.5 0 1.6
v -0.5 0 0.3
v 0 0 0.3
v 0 0 0.2
v 0.3 0 0.2
v 0.3 0 0.0999999
v 0.5 0 0.0999999
v 0.5 0 -1.19209e-07
v 0.8 0 -1.19209e-07
v 0.8 0 -0.1
v 1.1 0 -0.1
v 1.1 0 -0.2
v 1.4 0 -0.2
v 1.4 0 -0.3
v 1.6 0 -0.3
v 1.4 0 -0.7
v 1.6 0 -0.7
v 1.1 0 -0.8
v 1.4 0 -0.8
v 0.8 0 -0.9
v 1.1 0 -0.9
v 0.6 0 -1
v 0.8 0 -1
v 0.3 0 -1.1
v 0.6 0 -1.1
v 0 0 -1.2
v 0.3 0 -1.2
v -0.9 0 -1.3
v -0.8 0 -1.3
v -0.6 0 -1.3
v -0.5 0 -1.3
v 0 0 -1.3
v -1 0 -1.4
v -0.8 0 -1.4
v -0.6 0 -1.4
v -0.4 0 -1.4
v -1.1 0 -1.5
v -1 0 -1.5
v -0.9 0 -1.5
v -0.5 0 -1.5
v -0.4 0 -1.5
v -0.3 0 -1.5
v -1 0 -1.6
v -0.9 0 -1.6
v -0.5 0 -1.6
v -0.4 0 -1.6
v -1 0 -1.7
v -0.9 0 -1.7
v -0.5 0 -1.7
v -0.4 0 -1.7
v -1.1 0 -1.8
v -1 0 -1.8
v -0.9 0 -1.8
v -0.5 0 -1.8
v -0.4 0 -1.8
v -0.3 0 -1.8
v -1 0 -1.9
v -0.4 0 -1.9
v -0.8 0.1 1.7
v -0.6 0.1 1.7
v -0.9 0.1 1.6
v -0.8 0.1 1.6
v -0.6 0.1 1.6
v -0.5 0.1 1.6
v -0.8 0.1 1.5
v -0.6 0.1 1.5
v -0.5 0.1 0.3
v 0 0.1 0.3
v -0.4 0.1 0.2
v -0.2 0.1 0.2
v 0 0.1 0.2
v 0.3 0.1 0.2
v -0.2 0.1 0.0999999
v 0.1 0.1 0.0999999
v 0.3 0.1 0.0999999
v 0.5 0.1 0.0999999
v 0.1 0.1 -1.19209e-07
v 0.4 0.1 -1.19209e-07
v 0.5 0.1 -1.19209e-07
v 0.8 0.1 -1.19209e-07
v 0.4 0.1 -0.1
v 0.7 0.1 -0.1
v 0.8 0.1 -0.1
v 1.1 0.1 -0.1
v 0.7 0.1 -0.2
v 1 0.1 -0.2
v 1.1 0.1 -0.2
v 1.4 0.1 -0.2
v 1 0.1 -0.3
v 1.3 0.1 -0.3
v 1.4 0.1 -0.3
v 1.6 0.1 -0.3
v 1.3 0.1 -0.4
v 1.5 0.1 -0.4
v 1.3 0.1 -0.6
v 1.5 0.1 -0.6
v 1 0.1 -0.7
v 1.3 0.1 -0.7
v 1.4 0.1 -0.7
v 1.6 0.1 -0.7
v 0.7 0.1 -0.8
v 1 0.1 -0.8
v 1.1 0.1 -0.8
v 1.4 0.1 -0.8
v 0.4 0.1 -0.9
v 0.7 0.1 -0.9
v 0.8 0.1 -0.9
v 1.1 0.1 -0.9
v 0.1 0.1 -1
v 0.4 0.1 -1
v 0.6 0.1 -1
v 0.8 0.1 -1
v -0.2 0.1 -1.1
v 0.1 0.1 -1.1
v 0.3 0.1 -1.1
v 0.6 0.1 -1.1
v -0.8 0.1 -1.2
v -0.6 0.1 -1.2
v -0.4 0.1 -1.2
v -0.2 0.1 -1.2
v 0 0.1 -1.2
v 0.3 0.1 -1.2
v -0.9 0.1 -1.3
v -0.8 0.1 -1.3
v -0.6 0.1 -1.3
v -0.5 0.1 -1.3
v 0 0.1 -1.3
v -1 0.1 -1.4
v -0.8 0.1 -1.4
v -0.6 0.1 -1.4
v -0.4 0.1 -1.4
v -1.1 0.1 -1.5
v -1 0.1 -1.5
v -0.9 0.1 -1.5
v -0.5 0.1 -1.5
v -0.4 0.1 -1.5
v -0.3 0.1 -1.5
v -1 0.1 -1.6
v -0.9 0.1 -1.6
v -0.5 0.1 -1.6
v -0.4 0.1 -1.6
v -1 0.1 -1.7
v -0.9 0.1 -1.7
v -0.5 0.1 -1.7
v -0.4 0.1 -1.7
v -1.1 0.1 -1.8
v -1 0.1 -1.8
v -0.9 0.1 -1.8
v -0.5 0.1 -1.8
v -0.4 0.1 -1.8
v -0.3 0.1 -1.8
v -1 0.1 -1.9
v -0.4 0.1 -1.9
v -0.8 0.2 1.5
v -0.6 0.2 1.5
v -0.4 0.2 0.2
v -0.2 0.2 0.2
v -0.2 0.2 0.0999999
v 0.1 0.2 0.0999999
v 0.1 0.2 -1.19209e-07
v 0.4 0.2 -1.19209e-07
v 0.4 0.2 -0.1
v 0.7 0.2 -0.1
v 0.7 0.2 -0.2
v 1 0.2 -0.2
v 1 0.2 -0.3
v 1.3 0.2 -0.3
v 1.3 0.2 -0.4
v 1.5 0.2 -0.4
v 1.3 0.2 -0.6
v 1.5 0.2 -0.6
v 1 0.2 -0.7
v 1.3 0.2 -0.7
v 0.7 0.2 -0.8
v 1 0.2 -0.8
v 0.4 0.2 -0.9
v 0.7 0.2 -0.9
v 0.1 0.2 -1
v 0.4 0.2 -1
v -0.2 0.2 -1.1
v 0.1 0.2 -1.1
v -0.8 0.2 -1.2
v -0.6 0.2 -1.2
v -0.4 0.2 -1.2
v -0.2 0.2 -1.2
v -0.9 0.2 -1.5
v -0.5 0.2 -1.5
v -1 0.2 -1.6
v -0.9 0.2 -1.6
v -0.5 0.2 -1.6
v -0.4 0.2 -1.6
v -1 0.2 -1.7
v -0.9 0.2 -1.7
v -0.5 0.2 -1.7
v -0.4 0.2 -1.7
v -0.9 0.2 -1.8
v -0.5 0.2 -1.8

# faces
f 3/5/1 2/5/1 1/5/1
f 4/5/1 2/5/1 3/5/1
f 9/5/1 6/5/1 5/5/1
f 10/5/1 6/5/1 9/5/1
f 13/5/1 8/5/1 7/5/1
f 14/5/1 8/5/1 13/5/1
f 15/4/1 12/4/1 11/4/1
f 16/4/1 12/4/1 15/4/1
f 19/4/1 18/4/1 17/4/1
f 20/4/1 18/4/1 19/4/1
f 25/4/1 22/4/1 21/4/1
f 26/4/1 22/4/1 25/4/1
f 27/4/1 24/4/1 23/4/1
f 28/4/1 24/4/1 27/4/1
f 33/4/1 30/4/1 29/4/1
f 34/4/1 30/4/1 33/4/1
f 37/4/1 32/4/1 31/4/1
f 38/4/1 32/4/1 37/4/1
f 39/3/1 36/3/1 35/3/1
f 40/3/1 36/3/1 39/3/1
f 43/1/1 42/1/1 41/1/1
f 44/1/1 42/1/1 43/1/1
f 45/4/2 46/4/2 49/4/2
f 49/4/2 46/4/2 50/4/2
f 47/4/2 48/4/2 53/4/2
f 53/4/2 48/4/2 54/4/2
f 51/3/2 52/3/2 55/3/2
f 55/3/2 52/3/2 56/3/2
f 57/4/2 58/4/2 59/4/2
f 59/4/2 58/4/2 60/4/2
f 61/4/2 62/4/2 65/4/2
f 65/4/2 62/4/2 66/4/2
f 63/4/2 64/4/2 67/4/2
f 67/4/2 64/4/2 68/4/2
f 69/5/2 70/5/2 73/5/2
f 73/5/2 70/5/2 74/5/2
f 71/5/2 72/5/2 77/5/2
f 77/5/2 72/5/2 78/5/2
f 75/4/2 76/4/2 79/4/2
f 79/4/2 76/4/2 80/4/2
f 81/5/2 82/5/2 83/5/2
f 83/5/2 82/5/2 84/5/2
f 85/1/2 86/1/2 89/1/2
f 89/1/2 86/1/2 90/1/2
f 87/1/2 88/1/2 91/1/2
f 91/1/2 88/1/2 92/1/2
f 93/2/2 94/2/2 97/2/2
f 97/2/2 94/2/2 98/2/2
f 95/2/2 96/2/2 99/2/2
f 99/2/2 96/2/2 100/2/2
f 101/1/2 102/1/2 105/1/2
f 105/1/2 102/1/2 106/1/2
f 103/1/2 104/1/2 107/1/2
f 107/1/2 104/1/2 108/1/2
f 109/2/2 110/2/2 113/2/2
f 113/2/2 110/2/2 114/2/2
f 111/2/2 112/2/2 115/2/2
f 115/2/2 112/2/2 116/2/2
f 117/1/2 118/1/2 121/1/2
f 121/1/2 118/1/2 122/1/2
f 119/1/2 120/1/2 123/1/2
f 123/1/2 120/1/2 124/1/2
f 125/2/2 126/2/2 127/2/2
f 127/2/2 126/2/2 128/2/2
f 129/2/2 130/2/2 131/2/2
f 131/2/2 130/2/2 132/2/2
f 133/1/2 134/1/2 137/1/2
f 137/1/2 134/1/2 138/1/2
f 135/1/2 136/1/2 139/1/2
f 139/1/2 136/1/2 140/1/2
f 141/2/2 142/2/2 145/2/2
f 145/2/2 142/2/2 146/2/2
f 143/2/2 144/2/2 147/2/2
f 147/2/2 144/2/2 148/2/2
f 149/1/2 150/1/2 153/1/2
f 153/1/2 150/1/2 154/1/2
f 151/1/2 152/1/2 155/1/2
f 155/1/2 152/1/2 156/1/2
f 157/2/2 158/2/2 161/2/2
f 161/2/2 158/2/2 162/2/2
f 159/2/2 160/2/2 163/2/2
f 163/2/2 160/2/2 164/2/2
f 165/1/2 166/1/2 169/1/2
f 169/1/2 166/1/2 170/1/2
f 167/1/2 168/1/2 171/1/2
f 171/1/2 168/1/2 172/1/2
f 173/2/2 174/2/2 177/2/2
f 177/2/2 174/2/2 178/2/2
f 175/2/2 176/2/2 179/2/2
f 179/2/2 176/2/2 180/2/2
f 181/1/2 182/1/2 183/1/2
f 183/1/2 182/1/2 184/1/2
f 185/2/2 186/2/2 187/2/2
f 187/2/2 186/2/2 188/2/2
f 191/4/3 190/4/3 189/4/3
f 192/4/3 190/4/3 191/4/3
f 195/4/3 194/4/3 193/4/3
f 196/4/3 194/4/3 195/4/3
f 199/4/3 198/4/3 197/4/3
f 200/4/3 198/4/3 199/4/3
f 203/3/3 202/3/3 201/3/3
f 204/3/3 202/3/3 203/3/3
f 207/2/3 206/2/3 205/2/3
f 208/2/3 206/2/3 207/2/3
f 211/1/3 210/1/3 209/1/3
f 212/1/3 210/1/3 211/1/3
f 215/2/3 214/2/3 213/2/3
f 216/2/3 214/2/3 215/2/3
f 219/1/3 218/1/3 217/1/3
f 220/1/3 218/1/3 219/1/3
f 223/2/3 222/2/3 221/2/3
f 224/2/3 222/2/3 223/2/3
f 227/1/3 226/1/3 225/1/3
f 228/1/3 226/1/3 227/1/3
f 231/2/3 230/2/3 229/2/3
f 232/2/3 230/2/3 231/2/3
f 235/1/3 234/1/3 233/1/3
f 236/1/3 234/1/3 235/1/3
f 239/2/3 238/2/3 237/2/3
f 240/2/3 238/2/3 239/2/3
f 243/1/3 242/1/3 241/1/3
f 244/1/3 242/1/3 243/1/3
f 247/2/3 246/2/3 245/2/3
f 248/2/3 246/2/3 247/2/3
f 251/1/3 250/1/3 249/1/3
f 252/1/3 250/1/3 251/1/3
f 255/2/3 254/2/3 253/2/3
f 256/2/3 254/2/3 255/2/3
f 259/1/3 258/1/3 257/1/3
f 260/1/3 258/1/3 259/1/3
f 263/5/3 262/5/3 261/5/3
f 264/5/3 262/5/3 263/5/3
f 267/5/3 266/5/3 265/5/3
f 268/5/3 266/5/3 267/5/3
f 271/5/3 270/5/3 269/5/3
f 272/5/3 270/5/3 271/5/3
f 275/4/3 274/4/3 273/4/3
f 276/4/3 274/4/3 275/4/3
f 279/5/3 278/5/3 277/5/3
f 280/5/3 278/5/3 279/5/3
f 283/4/3 282/4/3 281/4/3
f 284/4/3 282/4/3 283/4/3
f 287/4/3 286/4/3 285/4/3
f 288/4/3 286/4/3 287/4/3
f 289/1/4 290/1/4 291/1/4
f 291/1/4 290/1/4 292/1/4
f 293/1/4 294/1/4 295/1/4
f 295/1/4 294/1/4 296/1/4
f 297/2/4 298/2/4 299/2/4
f 299/2/4 298/2/4 300/2/4
f 301/1/4 302/1/4 303/1/4
f 303/1/4 302/1/4 304/1/4
f 305/2/4 306/2/4 307/2/4
f 307/2/4 306/2/4 308/2/4
f 309/1/4 310/1/4 311/1/4
f 311/1/4 310/1/4 312/1/4
f 313/2/4 314/2/4 315/2/4
f 315/2/4 314/2/4 316/2/4
f 317/1/4 318/1/4 319/1/4
f 319/1/4 318/1/4 320/1/4
f 321/2/4 322/2/4 323/2/4
f 323/2/4 322/2/4 324/2/4
f 325/1/4 326/1/4 327/1/4
f 327/1/4 326/1/4 328/1/4
f 329/2/4 330/2/4 331/2/4
f 331/2/4 330/2/4 332/2/4
f 333/3/4 334/3/4 335/3/4
f 335/3/4 334/3/4 336/3/4
f 337/1/4 338/1/4 339/1/4
f 339/1/4 338/1/4 340/1/4
f 341/2/4 342/2/4 343/2/4
f 343/2/4 342/2/4 344/2/4
f 345/4/4 346/4/4 347/4/4
f 347/4/4 346/4/4 348/4/4
f 349/4/4 350/4/4 351/4/4
f 351/4/4 350/4/4 352/4/4
f 351/2/4 352/2/4 353/2/4
f 353/2/4 352/2/4 354/2/4
f 355/4/4 356/4/4 357/4/4
f 357/4/4 356/4/4 358/4/4
f 359/4/4 360/4/4 361/4/4
f 361/4/4 360/4/4 362/4/4
f 363/5/4 364/5/4 365/5/4
f 365/5/4 364/5/4 366/5/4
f 367/4/4 368/4/4 369/4/4
f 369/4/4 368/4/4 370/4/4
f 371/5/4 372/5/4 373/5/4
f 373/5/4 372/5/4 374/5/4
f 375/5/4 376/5/4 377/5/4
f 377/5/4 376/5/4 378/5/4
f 382/4/5 380/4/5 379/4/5
f 383/4/5 380/4/5 382/4/5
f 385/4/5 382/4/5 381/4/5
f 385/4/5 384/4/5 383/4/5
f 385/4/5 383/4/5 382/4/5
f 387/2/5 386/2/5 385/2/5
f 389/2/5 388/2/5 387/2/5
f 391/2/5 390/2/5 389/2/5
f 393/2/5 392/2/5 391/2/5
f 395/2/5 394/2/5 393/2/5
f 397/2/5 396/2/5 395/2/5
f 399/2/5 397/2/5 395/2/5
f 399/2/5 398/2/5 397/2/5
f 400/2/5 398/2/5 399/2/5
f 401/2/5 395/2/5 393/2/5
f 401/2/5 399/2/5 395/2/5
f 402/2/5 399/2/5 401/2/5
f 403/2/5 393/2/5 391/2/5
f 403/2/5 401/2/5 393/2/5
f 404/2/5 401/2/5 403/2/5
f 405/2/5 403/2/5 391/2/5
f 406/2/5 403/2/5 405/2/5
f 407/2/5 389/2/5 387/2/5
f 407/2/5 391/2/5 389/2/5
f 407/2/5 405/2/5 391/2/5
f 408/2/5 405/2/5 407/2/5
f 409/2/5 387/2/5 385/2/5
f 409/2/5 407/2/5 387/2/5
f 410/2/5 407/2/5 409/2/5
f 411/4/5 385/4/5 381/4/5
f 412/4/5 385/4/5 411/4/5
f 413/4/5 385/4/5 412/4/5
f 414/2/5 409/2/5 385/2/5
f 414/4/5 385/4/5 413/4/5
f 415/2/5 409/2/5 414/2/5
f 417/4/5 413/4/5 412/4/5
f 418/4/5 413/4/5 417/4/5
f 421/5/5 417/5/5 416/5/5
f 421/5/5 419/5/5 418/5/5
f 421/5/5 418/5/5 417/5/5
f 422/5/5 419/5/5 421/5/5
f 423/5/5 419/5/5 422/5/5
f 424/5/5 419/5/5 423/5/5
f 426/5/5 421/5/5 420/5/5
f 426/5/5 422/5/5 421/5/5
f 427/4/5 423/4/5 422/4/5
f 427/5/5 422/5/5 426/5/5
f 428/5/5 425/5/5 424/5/5
f 428/4/5 423/4/5 427/4/5
f 428/5/5 424/5/5 423/5/5
f 429/5/5 425/5/5 428/5/5
f 430/4/5 427/4/5 426/4/5
f 430/5/5 426/5/5 420/5/5
f 430/4/5 429/4/5 428/4/5
f 430/4/5 428/4/5 427/4/5
f 431/4/5 429/4/5 430/4/5
f 432/4/5 429/4/5 431/4/5
f 433/5/5 425/5/5 429/5/5
f 433/4/5 429/4/5 432/4/5
f 434/5/5 430/5/5 420/5/5
f 434/5/5 431/5/5 430/5/5
f 435/5/5 431/5/5 434/5/5
f 436/4/5 432/4/5 431/4/5
f 436/5/5 431/5/5 435/5/5
f 437/5/5 433/5/5 432/5/5
f 437/4/5 432/4/5 436/4/5
f 438/5/5 425/5/5 433/5/5
f 438/5/5 433/5/5 437/5/5
f 439/5/5 425/5/5 438/5/5
f 440/5/5 437/5/5 436/5/5
f 440/5/5 438/5/5 437/5/5
f 440/5/5 436/5/5 435/5/5
f 441/5/5 438/5/5 440/5/5
f 442/4/6 443/4/6 445/4/6
f 445/4/6 443/4/6 446/4/6
f 444/4/6 445/4/6 448/4/6
f 446/4/6 447/4/6 448/4/6
f 445/4/6 446/4/6 448/4/6
f 448/4/6 447/4/6 449/4/6
f 449/4/6 447/4/6 450/4/6
f 450/2/6 451/2/6 452/2/6
f 452/2/6 451/2/6 453/2/6
f 453/2/6 451/2/6 454/2/6
f 454/2/6 455/2/6 456/2/6
f 453/2/6 454/2/6 456/2/6
f 456/2/6 455/2/6 457/2/6
f 457/2/6 455/2/6 458/2/6
f 458/2/6 459/2/6 460/2/6
f 457/2/6 458/2/6 460/2/6
f 460/2/6 459/2/6 461/2/6
f 461/2/6 459/2/6 462/2/6
f 462/2/6 463/2/6 464/2/6
f 461/2/6 462/2/6 464/2/6
f 464/2/6 463/2/6 465/2/6
f 465/2/6 463/2/6 466/2/6
f 466/2/6 467/2/6 468/2/6
f 465/2/6 466/2/6 468/2/6
f 468/2/6 467/2/6 469/2/6
f 469/2/6 467/2/6 470/2/6
f 470/2/6 471/2/6 472/2/6
f 469/2/6 470/2/6 472/2/6
f 472/2/6 471/2/6 473/2/6
f 473/2/6 471/2/6 474/2/6
f 474/2/6 475/2/6 476/2/6
f 473/2/6 474/2/6 476/2/6
f 476/2/6 475/2/6 477/2/6
f 477/2/6 475/2/6 479/2/6
f 478/2/6 479/2/6 481/2/6
f 481/2/6 479/2/6 482/2/6
f 479/2/6 475/2/6 483/2/6
f 482/2/6 479/2/6 483/2/6
f 481/2/6 482/2/6 485/2/6
f 480/2/6 481/2/6 485/2/6
f 485/2/6 482/2/6 486/2/6
f 486/2/6 482/2/6 487/2/6
f 484/2/6 485/2/6 489/2/6
f 485/2/6 486/2/6 489/2/6
f 489/2/6 486/2/6 490/2/6
f 490/2/6 486/2/6 491/2/6
f 488/2/6 489/2/6 493/2/6
f 489/2/6 490/2/6 493/2/6
f 493/2/6 490/2/6 494/2/6
f 494/2/6 490/2/6 495/2/6
f 492/2/6 493/2/6 497/2/6
f 493/2/6 494/2/6 497/2/6
f 497/2/6 494/2/6 498/2/6
f 498/2/6 494/2/6 499/2/6
f 444/4/6 448/4/6 500/4/6
f 449/4/6 450/4/6 501/4/6
f 450/2/6 452/2/6 502/2/6
f 496/2/6 497/2/6 503/2/6
f 497/2/6 498/2/6 503/2/6
f 503/2/6 498/2/6 504/2/6
f 504/2/6 498/2/6 505/2/6
f 444/4/6 500/4/6 506/4/6
f 500/4/6 501/4/6 506/4/6
f 506/4/6 501/4/6 507/4/6
f 501/4/6 450/4/6 508/4/6
f 507/4/6 501/4/6 508/4/6
f 503/2/6 504/2/6 509/2/6
f 508/4/6 450/4/6 509/4/6
f 450/2/6 502/2/6 509/2/6
f 502/2/6 503/2/6 509/2/6
f 509/2/6 504/2/6 510/2/6
f 507/4/6 508/4/6 512/4/6
f 512/4/6 508/4/6 513/4/6
f 511/5/6 512/5/6 516/5/6
f 513/5/6 514/5/6 516/5/6
f 512/5/6 513/5/6 516/5/6
f 516/5/6 514/5/6 517/5/6
f 517/5/6 514/5/6 518/5/6
f 518/5/6 514/5/6 519/5/6
f 515/5/6 516/5/6 521/5/6
f 516/5/6 517/5/6 521/5/6
f 521/5/6 517/5/6 522/5/6
f 519/5/6 520/5/6 523/5/6
f 518/5/6 519/5/6 523/5/6
f 523/5/6 520/5/6 524/5/6
f 515/5/6 521/5/6 525/5/6
f 524/5/6 520/5/6 528/5/6
f 525/5/6 526/5/6 529/5/6
f 515/5/6 525/5/6 529/5/6
f 529/5/6 526/5/6 530/5/6
f 530/5/6 526/5/6 531/5/6
f 527/5/6 528/5/6 532/5/6
f 528/5/6 520/5/6 533/5/6
f 532/5/6 528/5/6 533/5/6
f 533/5/6 520/5/6 534/5/6
f 530/5/6 531/5/6 535/5/6
f 531/5/6 532/5/6 535/5/6
f 532/5/6 533/5/6 535/5/6
f 535/5/6 533/5/6 536/5/6
f 539/1/6 540/1/6 541/1/6
f 541/1/6 542/1/6 543/1/6
f 543/1/6 544/1/6 545/1/6
f 545/1/6 546/1/6 547/1/6
f 547/1/6 548/1/6 549/1/6
f 549/1/6 550/1/6 551/1/6
f 549/1/6 551/1/6 553/1/6
f 551/1/6 552/1/6 553/1/6
f 553/1/6 552/1/6 554/1/6
f 547/1/6 549/1/6 555/1/6
f 549/1/6 553/1/6 555/1/6
f 555/1/6 553/1/6 556/1/6
f 545/1/6 547/1/6 557/1/6
f 547/1/6 555/1/6 557/1/6
f 557/1/6 555/1/6 558/1/6
f 543/1/6 545/1/6 559/1/6
f 545/1/6 557/1/6 559/1/6
f 559/1/6 557/1/6 560/1/6
f 541/1/6 543/1/6 561/1/6
f 543/1/6 559/1/6 561/1/6
f 561/1/6 559/1/6 562/1/6
f 539/1/6 541/1/6 563/1/6
f 541/1/6 561/1/6 563/1/6
f 563/1/6 561/1/6 564/1/6
f 537/3/6 538/3/6 565/3/6
f 565/3/6 538/3/6 566/3/6
f 539/1/6 563/1/6 567/1/6
f 567/1/6 563/1/6 568/1/6
f 569/4/6 570/4/6 572/4/6
f 572/4/6 570/4/6 573/4/6
f 571/4/6 572/4/6 575/4/6
f 573/4/6 574/4/6 575/4/6
f 572/4/6 573/4/6 575/4/6
f 575/4/6 574/4/6 576/4/6
f 576/4/6 574/4/6 577/4/6
f 577/4/6 574/4/6 578/4/6
f 576/4/6 577/4/6 579/4/6
f 579/4/6 577/4/6 580/4/6
